<?xml version="1.0" standalone="no"?>
<!DOCTYPE svg PUBLIC "-//W3C//DTD SVG 20010904//EN"
 "http://www.w3.org/TR/2001/REC-SVG-20010904/DTD/svg10.dtd">
<svg version="1.0" xmlns="http://www.w3.org/2000/svg"
 width="736.000000pt" height="736.000000pt" viewBox="0 0 736.000000 736.000000"
 preserveAspectRatio="xMidYMid meet">
<metadata>
Created by potrace 1.11, written by Peter Selinger 2001-2013
</metadata>
<g transform="translate(0.000000,736.000000) scale(0.100000,-0.100000)"
fill="#000000" stroke="none">
<path d="M706 7245 c-13 -7 -27 -11 -29 -8 -8 7 -67 -26 -67 -37 0 -6 -6 -10
-13 -10 -15 0 -87 -68 -87 -82 0 -5 -4 -7 -8 -4 -5 3 -15 -7 -23 -22 -8 -15
-17 -29 -20 -32 -15 -12 -66 -127 -64 -142 2 -10 -1 -18 -5 -18 -11 0 -10 10
-14 -245 -3 -149 -1 -214 7 -224 9 -11 9 -13 1 -8 -17 10 -17 -1412 0 -1432 8
-11 8 -13 0 -8 -16 9 -16 -452 0 -472 8 -11 8 -13 0 -8 -17 10 -17 -1412 0
-1432 8 -11 8 -13 0 -8 -16 9 -16 -452 0 -472 8 -11 8 -13 0 -8 -17 10 -17
-1412 0 -1432 8 -11 8 -13 0 -8 -16 9 -16 -452 0 -472 8 -11 8 -13 -1 -8 -10
6 -11 -27 -8 -145 6 -188 5 -175 18 -223 6 -22 11 -42 12 -45 5 -25 39 -68 64
-83 17 -10 31 -15 31 -11 0 3 6 1 13 -5 8 -6 16 -8 19 -6 3 3 27 7 54 9 53 4
134 33 134 47 0 5 4 8 9 7 25 -7 171 131 171 162 0 5 4 10 9 10 7 0 19 25 25
52 0 3 4 10 9 14 4 4 7 17 7 29 0 12 3 25 7 29 4 3 9 14 11 24 4 14 15 3309
12 3452 -1 25 -1 50 -1 55 1 214 2 354 0 361 -1 5 -1 11 0 14 7 17 4 160 -2
160 -5 0 -5 6 -1 12 11 17 11 108 1 108 -5 0 -5 6 -1 12 11 17 11 108 1 108
-5 0 -5 6 -1 12 11 17 11 108 1 108 -5 0 -5 6 0 12 9 16 8 101 -1 117 -4 6 -4
11 1 11 4 0 8 103 8 230 0 126 -4 230 -8 230 -5 0 -5 6 -1 12 11 17 11 108 1
108 -5 0 -5 6 -1 12 11 17 11 108 1 108 -5 0 -5 6 -1 12 11 17 11 108 1 108
-5 0 -5 6 -1 12 11 17 11 108 1 108 -5 0 -5 6 -1 12 11 17 11 108 1 108 -5 0
-5 6 -1 12 11 17 11 108 1 108 -5 0 -5 6 -1 12 11 17 11 108 1 108 -5 0 -5 5
-1 12 10 16 11 68 1 68 -5 0 -5 6 -1 12 11 17 11 108 1 108 -5 0 -5 6 0 13 12
19 2 372 -13 477 -3 19 -7 47 -8 61 -6 43 -45 109 -77 128 -36 22 -135 25
-173 6z m99 -1004 c3 -5 2 -12 -3 -15 -5 -3 -9 1 -9 9 0 17 3 19 12 6z m-1
-1919 c3 -5 -1 -9 -9 -9 -8 0 -12 4 -9 9 3 4 7 8 9 8 2 0 6 -4 9 -8z"/>
<path d="M2640 7249 c-14 -6 -36 -13 -49 -15 -68 -13 -181 -129 -237 -241 -34
-69 -38 -84 -48 -160 -3 -18 -7 -37 -10 -42 -4 -5 -2 -12 4 -16 6 -4 8 -11 4
-16 -9 -14 -9 -93 0 -107 4 -7 4 -12 -1 -12 -4 0 -8 -157 -8 -350 0 -192 4
-350 8 -350 5 0 5 -5 1 -11 -9 -14 -9 -223 0 -238 4 -6 4 -11 -1 -11 -4 0 -8
-157 -8 -350 0 -192 4 -350 8 -350 5 0 5 -5 1 -11 -9 -14 -9 -223 0 -238 4 -6
4 -11 -1 -11 -4 0 -8 -157 -8 -350 0 -192 4 -350 8 -350 5 0 5 -5 1 -11 -9
-14 -9 -223 0 -238 4 -6 4 -11 -1 -11 -4 0 -8 -157 -8 -350 0 -192 4 -350 8
-350 5 0 5 -5 1 -11 -9 -15 -11 -169 -2 -169 4 0 5 -7 1 -16 -8 -22 -10 -284
-1 -284 4 0 3 -13 -2 -30 -5 -19 -5 -30 1 -30 6 0 7 -5 4 -11 -11 -16 -12 -69
-2 -69 4 0 5 -5 1 -12 -10 -16 -11 -68 -1 -68 5 0 5 -5 2 -11 -11 -16 -12 -69
-2 -69 4 0 5 -5 1 -11 -9 -15 -11 -189 -2 -189 4 0 5 -7 1 -16 -9 -23 -10
-304 -1 -304 4 0 5 -7 1 -16 -9 -23 -10 -304 -1 -304 4 0 5 -7 1 -16 -9 -23
-10 -304 -1 -304 4 0 5 -7 1 -16 -9 -24 -9 -304 0 -304 5 0 5 -5 1 -11 -8 -14
-9 -237 -1 -245 3 -3 2 -16 -3 -29 -5 -13 -6 -25 -4 -28 3 -3 7 -43 9 -89 2
-78 19 -167 34 -178 3 -3 11 -14 17 -25 17 -31 92 -65 119 -55 13 5 25 6 28 3
11 -10 122 29 171 61 68 44 110 86 150 149 28 44 66 126 66 142 0 3 0 6 1 8 0
1 3 22 5 47 3 25 7 51 10 59 2 7 -1 20 -7 27 -6 8 -7 14 -2 14 11 0 11 89 0
108 -5 6 -4 12 0 12 11 0 10 251 0 268 -5 6 -4 12 1 12 11 0 10 90 -1 108 -5
6 -4 12 1 12 11 0 10 90 -1 108 -5 6 -4 12 1 12 11 0 10 90 -1 108 -5 6 -4 12
0 12 11 0 10 250 0 268 -5 6 -4 12 1 12 11 0 10 90 -1 107 -5 7 -4 13 1 13 11
0 10 90 -1 108 -5 6 -4 12 1 12 11 0 10 90 -1 108 -5 6 -4 12 0 12 11 0 10
210 -1 228 -4 6 -3 12 1 12 11 0 10 291 0 308 -5 6 -4 12 1 12 11 0 10 90 -1
108 -5 6 -5 12 0 12 11 0 10 661 -1 679 -6 9 -5 12 1 8 12 -7 10 3535 -2 3623
-4 30 -11 57 -16 58 -5 2 -7 7 -4 12 5 9 -14 69 -27 85 -5 5 -17 21 -28 34
-18 21 -31 25 -88 27 -37 2 -78 -2 -92 -7z m-190 -5330 c0 -5 -4 -9 -8 -9 -5
0 -9 7 -9 15 0 8 4 12 9 9 4 -3 8 -9 8 -15z m0 -320 c0 -5 -4 -9 -8 -9 -5 0
-9 7 -9 15 0 8 4 12 9 9 4 -3 8 -9 8 -15z m0 -320 c0 -5 -4 -9 -8 -9 -5 0 -9
7 -9 15 0 8 4 12 9 9 4 -3 8 -9 8 -15z m0 -320 c0 -5 -4 -9 -8 -9 -5 0 -9 7
-9 15 0 8 4 12 9 9 4 -3 8 -9 8 -15z m290 -475 c0 -8 -19 -13 -24 -6 -3 5 1 9
9 9 8 0 15 -2 15 -3z"/>
<path d="M6525 5814 c-33 -25 -81 -56 -107 -69 -49 -26 -174 -64 -230 -69 -18
-2 -60 -7 -93 -11 -104 -13 -119 -13 -1157 -14 l-1018 -1 -32 -36 c-47 -51
-52 -63 -35 -82 25 -29 152 -225 179 -277 57 -108 112 -277 124 -384 3 -31 8
-59 10 -62 14 -24 18 -361 18 -1514 0 -726 -3 -1346 -7 -1378 -5 -32 -17 -88
-29 -125 -16 -54 -30 -75 -76 -121 -46 -45 -171 -126 -192 -124 -3 0 -16 -4
-30 -9 -14 -5 -60 -18 -104 -28 -43 -11 -80 -21 -83 -23 -5 -6 63 -187 75
-199 11 -11 1744 -14 1761 -4 6 4 11 2 11 -4 0 -6 4 -9 9 -5 6 3 54 8 108 10
107 5 148 9 262 25 93 13 133 20 141 25 6 4 51 14 90 20 8 1 22 5 30 8 8 3 51
17 95 32 208 71 375 184 500 340 22 28 43 52 46 55 3 3 24 37 47 75 59 101
115 243 136 345 3 14 7 36 11 50 23 104 28 386 9 493 -48 275 -199 531 -429
732 -59 51 -209 147 -299 190 -99 47 -260 104 -311 110 -5 1 -23 5 -40 8 -16
4 -42 10 -57 12 -16 3 -40 7 -55 10 -136 23 -446 23 -563 0 -14 -3 -38 -8 -55
-10 -103 -18 -220 -78 -245 -126 -16 -28 -14 -123 2 -157 22 -46 49 -52 141
-32 45 10 98 21 117 25 19 4 105 8 190 10 142 3 186 -1 315 -29 53 -11 167
-62 232 -102 128 -79 277 -243 346 -379 20 -40 57 -143 63 -175 2 -14 9 -47
16 -75 19 -82 15 -320 -7 -440 -12 -62 -48 -173 -80 -242 -159 -347 -488 -520
-910 -480 -126 12 -292 77 -378 148 -88 73 -143 199 -173 399 -2 14 -6 79 -9
145 -3 66 -7 125 -10 132 -2 7 0 15 5 18 5 3 6 15 1 28 -5 12 -5 34 0 49 4 16
5 28 1 28 -4 0 -6 19 -4 42 1 24 3 50 2 58 -2 88 -1 121 5 130 3 5 3 10 -2 10
-4 0 -8 38 -8 85 0 47 4 85 8 85 5 0 5 4 2 10 -8 13 -11 103 -3 115 3 6 2 19
-2 30 -4 11 -4 32 1 48 4 15 5 27 1 27 -4 0 -6 19 -4 42 1 24 3 50 2 58 -2 88
-1 121 5 130 3 5 3 10 -2 10 -4 0 -8 38 -8 85 0 47 4 85 8 85 5 0 5 4 2 10 -8
13 -11 103 -3 115 3 6 2 19 -2 30 -4 11 -4 32 1 48 4 15 5 27 1 27 -4 0 -6 19
-4 42 1 24 3 50 2 58 -2 88 -1 121 5 130 3 5 3 10 -2 10 -4 0 -8 38 -8 85 0
47 4 85 8 85 5 0 5 4 2 10 -8 13 -11 103 -3 115 3 6 2 19 -2 30 -4 11 -4 32 1
48 4 15 5 27 1 27 -4 0 -6 19 -4 42 1 24 3 50 2 58 -2 88 -1 121 5 130 3 5 3
10 -2 10 -4 0 -7 21 -6 48 13 302 13 294 37 375 30 102 103 154 241 172 45 6
779 7 836 1 173 -18 255 -50 336 -133 81 -82 162 -269 207 -475 10 -43 18 -78
19 -78 1 0 40 14 87 31 47 17 90 31 97 33 7 1 15 5 19 9 5 4 8 848 5 1054 -1
25 -11 39 -49 71 l-47 40 -60 -44z"/>
</g>
</svg>
